<?xml version="1.0" encoding="UTF-8" standalone="no"?>
<!DOCTYPE svg PUBLIC "-//W3C//DTD SVG 20010904//EN" "http://www.w3.org/TR/2001/REC-SVG-20010904/DTD/svg10.dtd">
<svg version="1.0" xmlns="http://www.w3.org/2000/svg" width="16.000000pt" height="16.000000pt" viewBox="0 0 16.000000 16.000000" preserveAspectRatio="xMidYMid meet">
<metadata>
Created by potrace 1.11, written by Peter Selinger 2001-2013
</metadata>
<g transform="translate(0.000000,16.000000) scale(0.008000,-0.008000)" fill="#000000" stroke="none">
<path d="M870 1993 c-409 -58 -742 -358 -841 -758 -26 -103 -33 -292 -15 -400 51 -300 241 -568 506 -711 60 -33 175 -80 212 -88 13 -3 52 -11 88 -19 64 -14 295 -16 350 -3 14 3 39 8 55 12 157 31 352 140 479 267 200 201 298 447 291 732 -6 263 -100 489 -280 671 -155 156 -336 253 -540 287 -81 14 -241 19 -305 10z m270 -168 c123 -18 277 -89 389 -178 128 -102 260 -306 248 -383 -8 -48 -29 -70 -82 -83 -89 -22 -122 -17 -435 65 -85 22 -154 29 -290 28 -138 -1 -178 -7 -390 -65 -207 -57 -328 -50 -364 19 -13 26 -12 33 8 84 147 362 525 574 916 513z m-40 -700 c43 -22 98 -90 110 -136 22 -80 -1 -161 -63 -220 -39 -38 -67 -50 -130 -56 -85 -9 -172 39 -211 116 -63 122 7 280 138 312 41 9 123 1 156 -16z m-833 -194 c21 -2 81 -60 108 -107 84 -143 106 -313 46 -351 -50 -31 -115 35 -183 184 -31 69 -68 199 -68 240 0 26 31 44 65 38 11 -2 25 -4 32 -4z m1547 -20 c19 -20 19 -20 -2 -108 -41 -163 -135 -315 -207 -335 -19 -5 -33 0 -53 17 -23 20 -26 30 -26 82 2 131 97 324 178 358 39 17 85 11 110 -14z m-584 -396 c44 -15 57 -25 84 -69 38 -59 56 -108 51 -135 -16 -87 -147 -141 -345 -144 -205 -2 -358 44 -394 119 -14 30 -14 39 -2 73 37 109 90 159 181 169 22 2 41 5 42 6 1 1 76 1 167 0 125 -2 177 -6 216 -19z"/>
<path d="M930 1068 c-104 -53 -116 -194 -24 -265 31 -23 47 -28 95 -28 49 1 64 5 95 31 91 73 74 218 -30 265 -54 24 -82 24 -136 -3z"/>
</g>
</svg>